<svg width="24" height="24" viewBox="0 0 24 24" fill="none" xmlns="http://www.w3.org/2000/svg">
<path d="M17.9999 5C18.2652 5 18.5195 5.10536 18.707 5.29289C18.8946 5.48043 18.9999 5.73478 18.9999 6V14C18.9999 14.2652 18.8946 14.5196 18.707 14.7071C18.5195 14.8946 18.2652 15 17.9999 15C17.7347 15 17.4804 14.8946 17.2928 14.7071C17.1053 14.5196 16.9999 14.2652 16.9999 14V8.414L7.04994 18.364C6.86133 18.5462 6.60873 18.647 6.34653 18.6447C6.08434 18.6424 5.83353 18.5372 5.64812 18.3518C5.46271 18.1664 5.35754 17.9156 5.35526 17.6534C5.35298 17.3912 5.45378 17.1386 5.63594 16.95L15.5859 7H9.99994C9.73472 7 9.48037 6.89464 9.29283 6.70711C9.10529 6.51957 8.99994 6.26522 8.99994 6C8.99994 5.73478 9.10529 5.48043 9.29283 5.29289C9.48037 5.10536 9.73472 5 9.99994 5H17.9999Z" fill="white"/>
</svg>
