<svg width="24" height="24" viewBox="0 0 24 24" fill="none" xmlns="http://www.w3.org/2000/svg">
<path d="M16.94 5.82C16.2566 5.03953 15.8799 4.0374 15.88 3H12.79V15.4C12.7667 16.0712 12.4835 16.7071 12.0003 17.1735C11.5171 17.6399 10.8716 17.9004 10.2 17.9C8.78 17.9 7.6 16.74 7.6 15.3C7.6 13.58 9.26 12.29 10.97 12.82V9.66C7.52 9.2 4.5 11.88 4.5 15.3C4.5 18.63 7.26 21 10.19 21C13.33 21 15.88 18.45 15.88 15.3V9.01C17.133 9.90985 18.6374 10.3926 20.18 10.39V7.3C20.18 7.3 18.3 7.39 16.94 5.82Z" fill="white"/>
</svg>
